<svg width="40" height="40" viewBox="0 0 40 40" fill="none" xmlns="http://www.w3.org/2000/svg">
<rect width="40" height="40" rx="4" fill="#D8FFF8"/>
<path d="M23 12.9981C23 12.6797 22.7531 12 22.0031 12C21.5662 12 21.1634 12.2835 21.0378 12.7244L17.0378 26.7244C17.0116 26.8161 16.999 26.9085 16.999 26.9994C16.9719 27.3219 17.25 28 18 28C18.435 28 18.8353 27.7138 18.9609 27.2744L22.9609 13.2744C22.9875 13.1816 23 13.0891 23 12.9981ZM15.5 16.4719C15.5 15.9006 15.0328 15.4719 14.5 15.4719C14.2441 15.4719 13.9881 15.5695 13.7931 15.7649L10.2931 19.2649C10.0977 19.4875 10 19.7438 10 19.9719C10 20.2 10.0977 20.5125 10.293 20.7063L13.793 24.2063C13.9875 24.4031 14.2438 24.4719 14.5 24.4719C15.0328 24.4719 15.5 24.0428 15.5 23.4719C15.5 23.216 15.4023 22.96 15.207 22.7647L12.4141 19.9719L15.2072 17.1788C15.4031 17.0094 15.5 16.7563 15.5 16.4719ZM30 19.9719C30 19.716 29.9023 19.46 29.707 19.2647L26.207 15.7647C26.0125 15.5969 25.7563 15.4719 25.5 15.4719C24.9672 15.4719 24.5 15.9009 24.5 16.4719C24.5 16.7278 24.5977 16.9837 24.793 17.1791L27.5861 19.9722L24.793 22.7653C24.5969 22.9875 24.5 23.2438 24.5 23.4719C24.5 24.0431 24.9672 24.4719 25.5 24.4719C25.7559 24.4719 26.0119 24.3742 26.2069 24.1789L29.7069 20.6789C29.9031 20.5125 30 20.2563 30 19.9719Z" fill="#26A891"/>
</svg>
