<svg width="17" height="21" viewBox="0 0 17 21" fill="none" xmlns="http://www.w3.org/2000/svg">
<path d="M8.5 16.5V10.5M8.5 10.5L5.5 12.5M8.5 10.5L11.5 12.5M9.5 1.50087C9.40451 1.5 9.29728 1.5 9.17471 1.5H4.7002C3.58009 1.5 3.01962 1.5 2.5918 1.71799C2.21547 1.90973 1.90973 2.21547 1.71799 2.5918C1.5 3.01962 1.5 3.58009 1.5 4.7002V16.3002C1.5 17.4203 1.5 17.9801 1.71799 18.4079C1.90973 18.7842 2.21547 19.0905 2.5918 19.2822C3.01921 19.5 3.579 19.5 4.69694 19.5L12.3031 19.5C13.421 19.5 13.98 19.5 14.4074 19.2822C14.7837 19.0905 15.0905 18.7842 15.2822 18.4079C15.5 17.9805 15.5 17.4215 15.5 16.3036V7.82568C15.5 7.70296 15.5 7.59561 15.4991 7.5M9.5 1.50087C9.78564 1.50347 9.96634 1.51385 10.1388 1.55526C10.3429 1.60425 10.5379 1.68526 10.7168 1.79492C10.9186 1.91857 11.0918 2.09182 11.4375 2.4375L14.563 5.56298C14.9089 5.90889 15.0809 6.08136 15.2046 6.28319C15.3142 6.46214 15.3953 6.65726 15.4443 6.86133C15.4857 7.03376 15.4963 7.21451 15.4991 7.5M9.5 1.50087V4.3C9.5 5.4201 9.5 5.97977 9.71799 6.40759C9.90973 6.78392 10.2155 7.09048 10.5918 7.28223C11.0192 7.5 11.579 7.5 12.6969 7.5H15.4991M15.4991 7.5H15.5002" stroke="black" stroke-width="2" stroke-linecap="round" stroke-linejoin="round"/>
</svg>
