<svg width="40" height="40" viewBox="0 0 40 40" fill="none" xmlns="http://www.w3.org/2000/svg">
<rect width="40" height="40" rx="4" fill="#D8FFF8"/>
<path d="M17 23V26C17 27.6569 15.6569 29 14 29C12.3431 29 11 27.6569 11 26C11 24.3431 12.3431 23 14 23H17ZM17 23H23M17 23V17M23 23V26C23 27.6569 24.3431 29 26 29C27.6569 29 29 27.6569 29 26C29 24.3431 27.6569 23 26 23H23ZM23 23V17M23 17H17M23 17V14C23 12.3431 24.3431 11 26 11C27.6569 11 29 12.3431 29 14C29 15.6569 27.6569 17 26 17H23ZM17 17V14C17 12.3431 15.6569 11 14 11C12.3431 11 11 12.3431 11 14C11 15.6569 12.3431 17 14 17H17Z" stroke="#26A891" stroke-width="2" stroke-linecap="round" stroke-linejoin="round"/>
</svg>
