<svg width="40" height="40" viewBox="0 0 40 40" fill="none" xmlns="http://www.w3.org/2000/svg">
<rect width="40" height="40" rx="4" fill="#D8FFF8"/>
<path d="M24 14H16C12.6862 14 10 16.6594 10 20C10 23.3406 12.6862 26 16 26H24C27.3125 26 30 23.3138 30 20C30 16.6863 27.3125 14 24 14ZM17.7219 20.75H16.7219V21.75C16.7219 22.1625 16.385 22.5 15.9725 22.5C15.56 22.5 15.2219 22.1625 15.2219 21.75V20.75L14.25 20.7219C13.8375 20.7219 13.4719 20.4125 13.4719 20C13.4719 19.5875 13.8109 19.2497 14.2234 19.2497L15.2219 19.25V18.25C15.2219 17.8375 15.56 17.5 15.9725 17.5C16.385 17.5 16.7219 17.8375 16.7219 18.25V19.25H17.7219C18.1344 19.25 18.4725 19.5875 18.4725 20C18.4719 20.4125 18.1625 20.75 17.7219 20.75ZM23.4719 22.75C22.7806 22.75 22.25 22.1916 22.25 21.5281C22.25 20.8647 22.8084 20.2781 23.4719 20.2781C24.1353 20.2781 24.6938 20.8369 24.6938 21.5281C24.6938 22.2194 24.1906 22.75 23.4719 22.75ZM25.4719 19.75C24.7806 19.75 24.25 19.1916 24.25 18.5281C24.25 17.8647 24.8084 17.2781 25.4719 17.2781C26.1631 17.2781 26.6938 17.8369 26.6938 18.5281C26.6938 19.2194 26.1906 19.75 25.4719 19.75Z" fill="#26A891"/>
</svg>
