<svg width="40" height="40" viewBox="0 0 40 40" fill="none" xmlns="http://www.w3.org/2000/svg">
<rect width="40" height="40" rx="4" fill="#D8FFF8"/>
<path fill-rule="evenodd" clip-rule="evenodd" d="M21.2354 9C20.9201 9 20.6118 9.09351 20.3496 9.26871C20.2751 9.31849 20.2053 9.37424 20.1407 9.43521C18.6195 9.55997 17.266 10.8494 16.3359 13.0411C13.8524 12.7381 11.9921 13.3353 11.1798 14.74C10.2763 16.3026 10.8822 18.5029 12.8487 20.7564C12.9495 20.8711 13.0738 20.9628 13.2132 21.0251C13.3526 21.0875 13.5038 21.1191 13.6565 21.1178C13.8963 21.1164 14.1286 21.034 14.3156 20.8839C14.5283 20.6992 14.659 20.4376 14.6789 20.1565C14.6989 19.8755 14.6064 19.598 14.4219 19.3851C13.1463 17.9608 12.583 16.5364 12.9869 15.8349C13.3047 15.2829 14.2935 15.0402 15.6274 15.143C15.4264 15.9392 15.2828 16.7494 15.1978 17.5674C15.1896 17.6381 15.1884 17.7092 15.1943 17.7798C15.114 18.5354 15.0726 19.2948 15.0703 20.0548C15.0693 20.8894 15.1155 21.7234 15.2085 22.5528C15.214 22.5984 15.2225 22.6434 15.2337 22.6875C15.3209 23.4671 15.4615 24.2394 15.6542 24.9989C14.4965 25.0873 13.5993 24.9153 13.1763 24.5063C13.1847 24.4403 13.1889 24.3736 13.1889 24.3066C13.1889 23.8837 13.0209 23.4782 12.7219 23.1792C12.4229 22.8801 12.0173 22.7122 11.5944 22.7122C11.2791 22.7122 10.9708 22.8057 10.7086 22.9809C10.4464 23.1561 10.242 23.4051 10.1214 23.6964C10.0007 23.9878 9.96912 24.3084 10.0306 24.6177C10.0922 24.9269 10.244 25.211 10.467 25.434C10.69 25.657 10.9741 25.8089 11.2834 25.8704C11.3813 25.8899 11.4804 25.9 11.5793 25.901C12.3435 26.7218 13.5517 27.1447 15.1235 27.1447C15.5311 27.1464 15.9384 27.1269 16.3436 27.0864C17.3231 29.3836 18.769 30.6843 20.385 30.6843C22.1921 30.6843 23.7865 29.058 24.7538 26.2305C24.8052 26.0972 24.8292 25.9549 24.8244 25.8121C24.8195 25.6693 24.7859 25.5289 24.7256 25.3994C24.6653 25.2699 24.5795 25.1539 24.4733 25.0582C24.3672 24.9626 24.2428 24.8894 24.1077 24.8429C23.9726 24.7965 23.8295 24.7777 23.687 24.7878C23.5445 24.7979 23.4054 24.8366 23.2782 24.9016C23.151 24.9667 23.0382 25.0567 22.9465 25.1663C22.8549 25.2759 22.7863 25.4029 22.7448 25.5396C22.1177 27.3785 21.1929 28.5584 20.385 28.5584C19.7494 28.5584 19.0414 27.8279 18.4629 26.6206C19.2777 26.3897 20.0762 26.1031 20.8528 25.7628C20.9667 25.7133 21.071 25.6443 21.161 25.5591C21.7915 25.2688 22.4087 24.9503 23.0106 24.6043C23.6732 24.2241 24.3174 23.8131 24.9413 23.3724C25.0105 23.337 25.076 23.2939 25.1365 23.2436C25.8051 22.7608 26.4394 22.233 27.0352 21.6641C27.6436 22.5468 27.9433 23.3672 27.8692 23.9406C27.7214 23.9859 27.5801 24.0527 27.4502 24.1395C27.188 24.3147 26.9836 24.5637 26.8629 24.8551C26.7423 25.1464 26.7107 25.467 26.7722 25.7763C26.8337 26.0856 26.9856 26.3697 27.2086 26.5927C27.4316 26.8156 27.7157 26.9675 28.025 27.029C28.3342 27.0905 28.6548 27.059 28.9462 26.9383C29.2375 26.8176 29.4865 26.6133 29.6617 26.351C29.8369 26.0888 29.9305 25.7806 29.9305 25.4652C29.9305 25.2619 29.8916 25.0626 29.818 24.8772C30.2965 23.5335 29.8251 21.8219 28.4793 20.0388C29.9956 18.0298 30.4019 16.1116 29.5903 14.708C28.6868 13.1455 26.4865 12.5715 23.5421 13.1455C23.2602 13.2005 23.0116 13.3652 22.8512 13.6034C22.6907 13.8416 22.6314 14.1338 22.6864 14.4157C22.7414 14.6976 22.9061 14.9462 23.1443 15.1066C23.2623 15.1861 23.3947 15.2415 23.5341 15.2698C23.6735 15.2981 23.8171 15.2986 23.9566 15.2714C25.8593 14.8994 27.3475 15.1013 27.7514 15.8029C28.0704 16.3569 27.7862 17.3616 27.0244 18.4611C26.5351 17.9866 26.0191 17.5401 25.479 17.1236C25.4036 16.9848 25.2977 16.8638 25.1684 16.7702C24.484 16.2766 23.7744 15.8189 23.0425 15.399C22.3193 14.9833 21.5742 14.6072 20.8103 14.2723C20.7103 14.2288 20.6044 14.201 20.4963 14.1897C19.8356 13.9111 19.1595 13.671 18.4716 13.4707C18.9395 12.5003 19.4912 11.8412 20.0204 11.6269C20.0482 11.6596 20.0774 11.6913 20.108 11.7219C20.331 11.9449 20.6151 12.0967 20.9244 12.1582C21.2337 12.2198 21.5542 12.1882 21.8456 12.0675C22.1369 11.9468 22.386 11.7425 22.5612 11.4803C22.7364 11.2181 22.8299 10.9098 22.8299 10.5944C22.8299 10.1716 22.6619 9.76601 22.3629 9.467C22.0639 9.16798 21.6583 9 21.2354 9ZM25.6516 20.0548C25.1721 20.5306 24.6622 20.975 24.125 21.3853C24.0355 21.4188 23.9502 21.4644 23.8716 21.5217C23.2624 21.9681 22.6309 22.3832 21.9795 22.7653C21.3529 23.1426 20.7059 23.485 20.0416 23.7909C20.0285 23.796 20.0154 23.8014 20.0024 23.807C19.2815 24.128 18.5367 24.3911 17.7752 24.5942C17.5746 23.8446 17.4308 23.0804 17.3451 22.3083L17.3444 22.3027C17.175 20.807 17.1752 19.297 17.3451 17.8013C17.357 17.6976 17.3536 17.5937 17.3357 17.4928C17.4229 16.8181 17.5547 16.1502 17.7299 15.4934C18.4924 15.6965 19.2381 15.9599 19.9599 16.2813C20.0454 16.3152 20.1344 16.3392 20.225 16.3529C20.8234 16.6394 21.4089 16.9524 21.9795 17.2911C22.6309 17.6732 23.2624 18.0883 23.8716 18.5347L23.8906 18.5487C24.5143 19.0068 25.1029 19.5103 25.6516 20.0548ZM19.7946 19.171C19.9694 19.0542 20.1749 18.9918 20.3851 18.9918C20.667 18.9918 20.9374 19.1038 21.1367 19.3032C21.3361 19.5025 21.4481 19.7729 21.4481 20.0548C21.4481 20.265 21.3857 20.4705 21.2689 20.6453C21.1521 20.8201 20.9861 20.9564 20.7919 21.0368C20.5976 21.1173 20.3839 21.1383 20.1777 21.0973C19.9715 21.0563 19.7821 20.9551 19.6335 20.8064C19.4848 20.6577 19.3836 20.4683 19.3426 20.2622C19.3016 20.056 19.3226 19.8422 19.4031 19.648C19.4835 19.4538 19.6198 19.2878 19.7946 19.171Z" fill="#26A891"/>
</svg>
