<svg width="160" height="31" viewBox="0 0 160 31" fill="none" xmlns="http://www.w3.org/2000/svg">
<path d="M10.0453 0.671997H0V10.7173H10.0453V0.671997Z" fill="#34D6BA"/>
<path d="M30.1349 0.671997H20.0895V10.7173H30.1349V0.671997Z" fill="#34D6BA"/>
<path d="M10.0453 10.7173V30.328L20.0895 20.2838V0.671997L10.0453 10.7173Z" fill="#34D6BA"/>
<path d="M0.478821 30.328L10.0453 20.2838V30.328H0.478821Z" fill="#36F29D"/>
<path d="M43.6341 16.4338V7.71269H40.1813V5.19144H50.2516V7.71269H46.8146V16.4338H43.6341Z" fill="black"/>
<path d="M51.1196 16.4338V7.72857H54.0266V10.2668L53.5932 9.54406C53.8215 8.9201 54.2638 8.3974 54.8413 8.06897C55.4185 7.74294 56.1197 7.57993 56.945 7.57993V10.3258C56.8054 10.3043 56.6852 10.2918 56.5842 10.2861C56.4832 10.2805 56.372 10.2782 56.2551 10.2782C55.6333 10.2782 55.1299 10.4469 54.7449 10.7843C54.3598 11.1216 54.1669 11.6704 54.1662 12.4307V16.4293L51.1196 16.4338Z" fill="black"/>
<path d="M61.8967 16.5779C61.2383 16.5889 60.5865 16.4463 59.9927 16.1615C59.4257 15.878 58.9644 15.4203 58.6765 14.8555C58.3603 14.2609 58.2022 13.5086 58.2022 12.5986V7.72858H61.2545V12.0971C61.2545 12.7779 61.3793 13.2533 61.6323 13.5427C61.8854 13.832 62.2394 13.9773 62.6989 13.9773C62.9861 13.9804 63.269 13.908 63.5193 13.7673C63.7811 13.6119 63.9884 13.3792 64.1128 13.1013C64.2766 12.7301 64.3542 12.3267 64.3397 11.9212V7.72858H67.3908V16.4338H64.4827V13.9773L65.05 14.6671C64.7811 15.2744 64.3229 15.7783 63.744 16.1036C63.1798 16.4192 62.5432 16.5827 61.8967 16.5779Z" fill="black"/>
<path d="M73.9108 16.5779C72.8828 16.5779 71.986 16.3828 71.2205 15.9924C70.4901 15.6323 69.8745 15.076 69.4424 14.3857C69.0145 13.6884 68.7945 12.8834 68.8081 12.0653C68.7937 11.2515 69.0058 10.4496 69.4209 9.74944C69.8323 9.07104 70.4249 8.5209 71.132 8.16089C71.8779 7.79457 72.6965 7.60013 73.5275 7.59189C74.3585 7.58364 75.1808 7.76179 75.9339 8.11323C76.6299 8.44926 77.2151 8.97769 77.6201 9.63597C78.0384 10.31 78.2475 11.1288 78.2475 12.0926C78.2475 12.206 78.2419 12.3195 78.2305 12.4625C78.2192 12.6054 78.2101 12.7302 78.1987 12.8471H71.309V11.2461H76.5773L75.4199 11.7C75.4397 11.3446 75.3653 10.9904 75.2043 10.6731C75.0569 10.3925 74.8341 10.1587 74.561 9.99793C74.2673 9.84002 73.939 9.75737 73.6056 9.75737C73.2721 9.75737 72.9438 9.84002 72.6502 9.99793C72.3767 10.158 72.1562 10.3947 72.0159 10.6787C71.8584 11.0009 71.7806 11.3562 71.7889 11.7147V12.1799C71.7783 12.5662 71.8694 12.9486 72.0533 13.2885C72.2287 13.599 72.4947 13.8484 72.8158 14.0034C73.1871 14.1774 73.5939 14.2625 74.0038 14.2518C74.3791 14.2611 74.7526 14.1988 75.1045 14.068C75.4358 13.9294 75.7424 13.7378 76.0122 13.5007L77.6178 15.1709C77.1933 15.6347 76.6665 15.9929 76.0792 16.2171C75.3855 16.4726 74.6498 16.595 73.9108 16.5779Z" fill="black"/>
<path d="M88.4301 16.6585C87.5328 16.6632 86.6388 16.5488 85.7716 16.3181C84.9206 16.0912 84.2273 15.7943 83.6917 15.4274L84.7367 13.082C85.28 13.422 85.8656 13.6891 86.4785 13.8763C87.1141 14.0821 87.7779 14.1877 88.446 14.1895C88.8032 14.2011 89.1603 14.1629 89.5069 14.076C89.7286 14.0194 89.9312 13.9047 90.0936 13.7435C90.2148 13.6161 90.2812 13.4462 90.2785 13.2704C90.2798 13.1462 90.2476 13.024 90.1853 12.9165C90.123 12.8091 90.0329 12.7205 89.9245 12.6599C89.6407 12.4899 89.3322 12.3651 89.01 12.29C88.6317 12.1939 88.2157 12.0979 87.7618 12.0018C87.3016 11.9032 86.8471 11.7797 86.4002 11.6319C85.961 11.4899 85.5416 11.2928 85.152 11.0453C84.7775 10.8047 84.464 10.4804 84.2364 10.0978C84.0019 9.70747 83.8842 9.21238 83.8835 8.61251C83.8769 7.95985 84.0701 7.3208 84.4372 6.78114C84.8071 6.23498 85.3612 5.79586 86.0995 5.46377C86.8378 5.13169 87.7588 4.96603 88.8624 4.96678C89.5952 4.96447 90.3258 5.04633 91.0399 5.21074C91.7071 5.35914 92.3487 5.60538 92.9439 5.94147L91.9635 8.30274C91.4601 8.02666 90.9273 7.80818 90.375 7.65143C89.877 7.51237 89.3625 7.441 88.8454 7.43925C88.4871 7.42849 88.1294 7.47484 87.7856 7.57655C87.5621 7.63889 87.3613 7.76413 87.2069 7.93737C87.0903 8.08312 87.0278 8.26474 87.0299 8.45138C87.0295 8.57126 87.0614 8.68903 87.1223 8.79228C87.1832 8.89553 87.2709 8.98042 87.376 9.03801C87.6604 9.20385 87.9696 9.32299 88.2917 9.3909C88.6707 9.48281 89.086 9.57585 89.5398 9.6723C89.9937 9.76875 90.4476 9.88902 90.9015 10.0331C91.3411 10.1703 91.7608 10.3649 92.1496 10.6118C92.5229 10.8514 92.834 11.1761 93.0574 11.5593C93.2843 11.9504 93.3978 12.4421 93.3978 13.0344C93.4003 13.679 93.2072 14.3093 92.844 14.8419C92.4741 15.3934 91.9227 15.8351 91.1897 16.1672C90.4567 16.4993 89.5368 16.6631 88.4301 16.6585Z" fill="black"/>
<path d="M99.095 16.5779C98.216 16.5944 97.3462 16.3961 96.5612 16.0004C95.8441 15.6368 95.2402 15.0839 94.815 14.4016C94.3846 13.699 94.1641 12.888 94.1795 12.0642C94.1634 11.2431 94.384 10.4348 94.815 9.73581C95.2387 9.05646 95.8413 8.50687 96.5567 8.14726C97.3517 7.77218 98.2199 7.57767 99.0989 7.57767C99.978 7.57767 100.846 7.77218 101.641 8.14726C102.369 8.50423 102.979 9.06251 103.398 9.7558C103.818 10.4491 104.03 11.2483 104.009 12.0585C104.03 12.8717 103.818 13.6738 103.398 14.3708C102.979 15.0677 102.369 15.6307 101.641 15.9936C100.852 16.3917 99.9785 16.5922 99.095 16.5779ZM99.095 14.1531C99.4241 14.1591 99.7487 14.076 100.034 13.9126C100.316 13.7429 100.542 13.4944 100.685 13.1977C100.854 12.8441 100.937 12.4551 100.926 12.063C100.938 11.6767 100.855 11.2934 100.685 10.9465C100.539 10.6567 100.313 10.4146 100.034 10.2487C99.749 10.0844 99.4243 10.0008 99.095 10.007C98.7708 10.002 98.4515 10.0856 98.1713 10.2487C97.8914 10.4156 97.6635 10.6573 97.5132 10.9465C97.3373 11.2917 97.2514 11.6758 97.2636 12.063C97.2524 12.456 97.3381 12.8457 97.5132 13.1977C97.6602 13.4937 97.8885 13.7417 98.1713 13.9126C98.4518 14.0748 98.771 14.1579 99.095 14.1531Z" fill="black"/>
<path d="M104.504 10.3304V8.04741H110.816V10.3281L104.504 10.3304ZM105.773 16.4338V7.82047C105.773 6.77127 106.086 5.9335 106.712 5.30716C107.338 4.68082 108.235 4.36765 109.402 4.36765C109.775 4.36779 110.146 4.40581 110.511 4.48111C110.833 4.54137 111.143 4.65651 111.427 4.82152L110.672 6.97741C110.535 6.89897 110.389 6.8369 110.238 6.79245C110.081 6.74516 109.919 6.7207 109.756 6.71984C109.619 6.71149 109.482 6.73224 109.353 6.78074C109.224 6.82923 109.107 6.90438 109.01 7.00124C108.833 7.18846 108.744 7.47553 108.744 7.86019V8.48653L108.827 9.74943V16.4304L105.773 16.4338Z" fill="black"/>
<path d="M111.028 10.3304V8.0474H117.341V10.3281L111.028 10.3304ZM115.83 16.5779C114.717 16.5779 113.85 16.3026 113.228 15.7519C112.607 15.2012 112.297 14.3691 112.297 13.2556V5.78485H115.348V13.2215C115.34 13.3543 115.359 13.4873 115.404 13.6127C115.448 13.7382 115.516 13.8536 115.606 13.9523C115.691 14.04 115.794 14.109 115.907 14.1547C116.021 14.2004 116.143 14.2219 116.265 14.2178C116.596 14.2274 116.923 14.1317 117.196 13.9443L117.951 16.0809C117.661 16.2654 117.34 16.3936 117.002 16.4588C116.617 16.5394 116.224 16.5793 115.83 16.5779Z" fill="black"/>
<path d="M121.035 16.4338L117.934 7.72858H120.825L123.283 15.0053H121.902L124.455 7.72858H127.058L129.516 15.0053H128.165L130.704 7.72858H133.385L130.286 16.4338H127.336L125.247 10.411H126.147L123.991 16.4338H121.035Z" fill="black"/>
<path d="M136.758 16.5779C136.063 16.5779 135.474 16.4603 134.992 16.2251C134.54 16.0167 134.157 15.6821 133.891 15.2617C133.639 14.8526 133.509 14.3805 133.514 13.9001C133.502 13.4053 133.645 12.9192 133.924 12.5101C134.198 12.1198 134.618 11.8202 135.185 11.6115C135.751 11.4027 136.484 11.2983 137.385 11.2983H139.441V12.8868H137.802C137.31 12.8868 136.964 12.967 136.766 13.1274C136.67 13.2042 136.594 13.3021 136.542 13.4136C136.491 13.525 136.466 13.6469 136.469 13.7696C136.465 13.8934 136.491 14.0163 136.544 14.1282C136.597 14.2401 136.676 14.3378 136.774 14.413C137.018 14.5853 137.313 14.6701 137.61 14.6535C137.93 14.6571 138.245 14.571 138.518 14.405C138.801 14.2274 139.014 13.9577 139.121 13.6414L139.538 14.7659C139.41 15.3231 139.073 15.8102 138.598 16.1275C138.132 16.4285 137.519 16.5787 136.758 16.5779ZM139.328 16.4338V14.8124L139.12 14.4107V11.4231C139.12 10.9412 138.972 10.5691 138.677 10.3066C138.382 10.0441 137.914 9.91284 137.272 9.91284C136.842 9.91486 136.414 9.98258 136.004 10.1137C135.609 10.2305 135.24 10.4186 134.913 10.6685L133.885 8.59547C134.433 8.25133 135.032 7.99912 135.661 7.84885C136.335 7.67491 137.028 7.58609 137.724 7.58447C139.138 7.58447 140.235 7.90824 141.015 8.55576C141.794 9.20328 142.181 10.2181 142.175 11.6001V16.4338H139.328Z" fill="black"/>
<path d="M144.104 16.4338V7.72857H147.011V10.2668L146.578 9.54406C146.807 8.9203 147.249 8.3977 147.826 8.06897C148.405 7.74294 149.106 7.57993 149.93 7.57993V10.3258C149.791 10.3043 149.67 10.2918 149.569 10.2861C149.468 10.2805 149.357 10.2782 149.239 10.2782C148.618 10.2782 148.115 10.4469 147.731 10.7843C147.346 11.1216 147.154 11.6704 147.152 12.4307V16.4293L144.104 16.4338Z" fill="black"/>
<path d="M155.662 16.5779C154.635 16.5779 153.738 16.3828 152.973 15.9924C152.241 15.633 151.624 15.0766 151.19 14.3857C150.762 13.6884 150.542 12.8834 150.556 12.0653C150.543 11.251 150.757 10.4492 151.173 9.74943C151.585 9.07104 152.177 8.5209 152.884 8.16088C153.631 7.79439 154.449 7.59986 155.281 7.59161C156.112 7.58337 156.934 7.76161 157.688 8.11323C158.383 8.44989 158.968 8.97818 159.374 9.63597C159.791 10.31 160 11.1288 160 12.0925C160 12.206 160 12.3195 159.983 12.4625C159.966 12.6054 159.963 12.7302 159.952 12.8471H153.061V11.2461H158.329L157.172 11.6999C157.192 11.3445 157.117 10.9903 156.956 10.6731C156.809 10.3928 156.587 10.159 156.315 9.99793C156.021 9.84002 155.692 9.75737 155.359 9.75737C155.025 9.75737 154.697 9.84002 154.403 9.99793C154.129 10.158 153.909 10.3947 153.768 10.6787C153.611 11.0009 153.533 11.3562 153.541 11.7147V12.1799C153.531 12.5663 153.623 12.9487 153.807 13.2885C153.982 13.599 154.248 13.8484 154.569 14.0033C154.941 14.1777 155.348 14.2628 155.759 14.2518C156.134 14.2611 156.507 14.1988 156.859 14.068C157.19 13.9292 157.497 13.7376 157.767 13.5007L159.373 15.1709C158.948 15.6341 158.421 15.9922 157.834 16.2171C157.139 16.473 156.402 16.5954 155.662 16.5779Z" fill="black"/>
<path d="M43.768 26.629C43.427 26.6319 43.0879 26.5774 42.7649 26.4678C42.4738 26.3683 42.2042 26.2143 41.9707 26.014C41.7503 25.8258 41.5714 25.594 41.4453 25.3332C41.3205 25.0634 41.2558 24.7697 41.2558 24.4725C41.2558 24.1753 41.3205 23.8816 41.4453 23.6118C41.5719 23.3504 41.752 23.1184 41.9741 22.931C42.2101 22.7312 42.4814 22.5773 42.774 22.4772C43.0968 22.3671 43.436 22.3126 43.7771 22.316C44.1108 22.3136 44.4427 22.3657 44.7597 22.4704C45.0508 22.5637 45.3167 22.7225 45.5369 22.9344L45.2136 23.2192C45.0254 23.0465 44.8031 22.9151 44.5611 22.8335C44.312 22.7548 44.0519 22.7165 43.7907 22.72C43.5175 22.7179 43.2458 22.762 42.9873 22.8505C42.7504 22.9313 42.5313 23.0569 42.3417 23.2204C42.1617 23.3747 42.0153 23.5643 41.9116 23.7775C41.81 23.9967 41.7573 24.2354 41.7573 24.477C41.7573 24.7187 41.81 24.9574 41.9116 25.1766C42.0156 25.3899 42.1619 25.5799 42.3417 25.7348C42.5313 25.8979 42.7505 26.0231 42.9873 26.1036C43.2457 26.1926 43.5174 26.2367 43.7907 26.2341C44.0524 26.2367 44.3128 26.1956 44.5611 26.1127C44.8028 26.0297 45.0249 25.898 45.2136 25.7258L45.5369 26.0094C45.3162 26.2215 45.0505 26.3813 44.7597 26.4769C44.4398 26.582 44.1047 26.6334 43.768 26.629Z" fill="#676767"/>
<path d="M62.3609 26.6289C62.0187 26.6318 61.6785 26.5773 61.3544 26.4678C61.0596 26.3696 60.7864 26.2155 60.5499 26.0139C60.3284 25.8261 60.1483 25.5942 60.0211 25.3331C59.8963 25.0646 59.8316 24.772 59.8316 24.4759C59.8316 24.1797 59.8963 23.8872 60.0211 23.6186C60.1486 23.3577 60.3286 23.1259 60.5499 22.9378C60.7835 22.7376 61.0531 22.5835 61.3442 22.4839C61.9983 22.2691 62.7041 22.2691 63.3582 22.4839C63.6508 22.5841 63.9221 22.738 64.1582 22.9378C64.3802 23.1252 64.5603 23.3571 64.687 23.6186C64.8118 23.8884 64.8764 24.182 64.8764 24.4793C64.8764 24.7765 64.8118 25.0702 64.687 25.3399C64.5603 25.6014 64.3802 25.8334 64.1582 26.0207C63.9224 26.2209 63.651 26.3749 63.3582 26.4746C63.0367 26.5813 62.6996 26.6334 62.3609 26.6289ZM62.3609 26.2284C62.6311 26.2306 62.8998 26.1864 63.1551 26.0979C63.3899 26.0174 63.6068 25.8921 63.794 25.7291C63.9717 25.5739 64.1157 25.3839 64.2172 25.1709C64.3163 24.951 64.3676 24.7125 64.3676 24.4713C64.3676 24.2301 64.3163 23.9917 64.2172 23.7718C64.116 23.5589 63.9719 23.3692 63.794 23.2147C63.6068 23.0514 63.3899 22.9258 63.1551 22.8448C62.8996 22.7568 62.6311 22.7126 62.3609 22.7143C62.0873 22.7121 61.8153 22.7562 61.5564 22.8448C61.3204 22.9254 61.1023 23.051 60.9141 23.2147C60.7362 23.3698 60.5914 23.5593 60.4886 23.7718C60.3862 23.9904 60.3332 24.2288 60.3332 24.4702C60.3332 24.7116 60.3862 24.95 60.4886 25.1686C60.591 25.3823 60.7358 25.573 60.9141 25.7291C61.1024 25.8924 61.3205 26.0176 61.5564 26.0979C61.8151 26.187 62.0872 26.2311 62.3609 26.2284Z" fill="#676767"/>
<path d="M79.768 26.5915V22.3512H80.1867L82.3778 25.6588H82.1622L84.3396 22.3512H84.7606V26.5915H84.2738V23.0252H84.3873L82.3778 26.0525H82.1384L80.1209 23.0252H80.2514V26.5937L79.768 26.5915Z" fill="#676767"/>
<path d="M100.067 26.5915V22.3512H101.867C102.225 22.343 102.582 22.4015 102.919 22.5237C103.189 22.6204 103.425 22.7929 103.6 23.0206C103.762 23.2498 103.845 23.5253 103.837 23.8058C103.844 24.082 103.76 24.3528 103.6 24.5774C103.425 24.8058 103.189 24.9795 102.919 25.0778C102.582 25.2019 102.225 25.2612 101.867 25.2526H100.349L100.576 25.0404V26.5915H100.067ZM100.576 25.0778L100.349 24.86H101.853C102.334 24.86 102.7 24.7669 102.949 24.5842C103.072 24.4958 103.17 24.3783 103.235 24.2424C103.301 24.1065 103.331 23.9565 103.324 23.8058C103.331 23.6537 103.301 23.5021 103.236 23.3646C103.17 23.227 103.072 23.1077 102.949 23.0172C102.7 22.8311 102.334 22.7385 101.853 22.7392H100.349L100.576 22.5271V25.0778Z" fill="#676767"/>
<path d="M117.666 26.5915L119.865 22.3512H120.367L122.565 26.5915H122.029L120.009 22.6121H120.216L118.195 26.5915H117.666ZM118.532 25.4568L118.683 25.0937H121.48L121.631 25.4568H118.532Z" fill="#676767"/>
<path d="M137.1 26.5915V22.3512H137.523L140.842 26.0343H140.622V22.3512H141.123V26.5915H140.7L137.388 22.9117H137.608V26.5949L137.1 26.5915Z" fill="#676767"/>
<path d="M157.574 26.5915V25.0165L157.688 25.2957L155.645 22.3512H156.188L157.981 24.9382H157.692L159.486 22.3512H159.994L157.952 25.2957L158.065 25.0165V26.5915H157.574Z" fill="#676767"/>
</svg>
